<svg width="1961" height="906" viewBox="0 0 1961 906" fill="none" xmlns="http://www.w3.org/2000/svg">
<circle cx="448.599" cy="419.625" r="192.454" fill="#FFFBFC"/>
<path fill-rule="evenodd" clip-rule="evenodd" d="M248.099 409.12C254.307 359.413 301.801 330.625 358.097 330.625C414.392 330.625 461.568 364.575 461.568 409.12C461.568 411.609 461.364 414.161 460.968 416.76C467.817 415.019 474.707 414.078 481.532 414.078C540.886 414.078 596.174 459.323 578.31 534.469C565.164 589.766 521.689 621.206 462.336 621.206C455.537 621.206 448.926 620.689 442.55 619.702C279.541 623.427 244.206 504.428 247.186 443.206L248.397 443.97C246.705 433.371 246.524 421.733 248.099 409.12ZM359.944 515.55L360.555 516.233C360.635 515.935 360.717 515.637 360.8 515.338C360.515 515.41 360.229 515.481 359.944 515.55Z" fill="#2FBEE2"/>
<path fill-rule="evenodd" clip-rule="evenodd" d="M410.955 457.554C404.024 458.026 396.639 457.976 388.796 457.411C326.194 457.63 296.283 421.826 300.027 369.838C303.772 317.85 350.571 271.361 410.872 275.704C467.979 279.817 495.452 313.204 491.345 367.096C503.421 362.614 516.701 359.675 531.129 358.616C608.503 358.617 627.055 398.635 632.851 457.688C632.996 459.163 632.8 460.66 632.298 462.054C629.626 469.47 627.123 477.031 624.614 484.608C609.151 531.311 593.478 578.652 536.845 596.744C535.902 597.045 534.883 597.199 533.893 597.192C456.201 596.622 406.995 543.977 406.995 481.925C407.587 473.7 408.914 465.536 410.955 457.554Z" fill="#23365D"/>
<path fill-rule="evenodd" clip-rule="evenodd" d="M388.586 457.411C396.43 457.976 403.815 458.026 410.745 457.554C408.705 465.536 407.378 473.7 406.785 481.924C406.786 544.376 456.629 597.3 535.19 597.195C536.593 597.193 537.981 597.168 539.354 597.12C558.278 582.394 571.738 561.224 578.099 534.469C595.963 459.323 540.675 414.078 481.322 414.078C474.496 414.078 467.607 415.019 460.759 416.759C461.154 414.161 461.358 411.609 461.358 409.12C461.358 364.575 414.182 330.625 357.887 330.625C339.672 330.625 322.377 333.639 307.105 339.401C303.084 349.074 300.574 359.344 299.818 369.838C296.073 421.826 325.985 457.63 388.586 457.411Z" fill="#2FBEE2" fill-opacity="0.5"/>
<path d="M370.695 380.759C367.882 393.463 359.329 400.609 347.788 400.609C336.246 400.609 326.889 391.722 326.889 380.759C326.889 369.796 336.246 356.541 347.788 356.541C365.069 355.747 372.705 364.084 370.695 380.759Z" fill="#2FBEE2"/>
<path fill-rule="evenodd" clip-rule="evenodd" d="M261.089 378.165C296.08 331.383 440.23 307.041 434.145 437.879L462.29 404.789C450.119 327.199 374.431 270.908 271.738 351.921L266.413 365.043L261.089 378.165ZM556.996 574.425C583.534 522.38 559.278 405.553 434.144 437.882L462.29 404.792C512.115 393.001 603.344 402.073 582.574 547.145L573.149 557.714L556.996 574.425Z" fill="#23365D"/>
<path d="M376.334 338.587C286.217 331.317 246.256 383.493 253.102 462.604L239.79 433.698L265.308 361.308L316.364 338.587L360.936 332.907L376.334 338.587Z" fill="#23365D"/>
<path d="M480.167 614.742C572.971 588.118 571.02 520.694 560.8 494.173L576.106 521.549L583.241 541.716L574.112 593.823L539.121 603.712L504.07 618.277L480.167 614.742Z" fill="#23365D"/>
<path fill-rule="evenodd" clip-rule="evenodd" d="M447.839 654.677C569.252 654.677 667.677 556.252 667.677 434.839C667.677 313.425 569.252 215 447.839 215C326.425 215 228 313.425 228 434.839C228 556.252 326.425 654.677 447.839 654.677ZM447.839 617.404C548.667 617.404 630.404 535.667 630.404 434.839C630.404 334.012 548.667 252.274 447.839 252.274C347.011 252.274 265.274 334.012 265.274 434.839C265.274 535.667 347.011 617.404 447.839 617.404Z" fill="#23365D"/>
<path d="M913.2 456.6C887.333 456.6 874.667 450.067 875.2 437C875.2 424.733 887.6 418.6 912.4 418.6C918.267 418.6 923.867 419.267 929.2 420.6C938 411.8 942.4 398.467 942.4 380.6C942.4 349.667 921.733 334.2 880.4 334.2C858.8 334.2 838.267 338.867 818.8 348.2C811.6 351.667 805.067 354.867 799.2 357.8C793.6 360.733 788.4 362.2 783.6 362.2C778.8 362.2 776.4 360.733 776.4 357.8C776.4 354.333 779.067 349.267 784.4 342.6C789.733 335.667 797.2 328.733 806.8 321.8C831.333 304.733 859.2 296.067 890.4 295.8C931.2 295.8 961.2 303.933 980.4 320.2C996.933 333.8 1005.2 352.333 1005.2 375.8C1005.2 403 991.867 423.8 965.2 438.2C990.8 452.867 1006 470.867 1010.8 492.2C1012.4 499.667 1013.2 509.533 1013.2 521.8C1013.2 534.067 1009.87 545.667 1003.2 556.6C996.533 567.533 987.6 576.733 976.4 584.2C954 598.6 925.333 605.8 890.4 605.8C865.6 605.8 838 600.2 807.6 589C787.333 581.533 772.4 572.6 762.8 562.2C758 557.133 755.6 552.067 755.6 547C755.867 541.933 758.4 539.4 763.2 539.4C768.267 539.4 777.733 541.133 791.6 544.6V544.2C791.6 523.4 794 502.067 798.8 480.2C807.067 442.067 816.667 412.2 827.6 390.6C839.333 366.6 851.467 354.6 864 354.6C867.467 354.6 869.2 360.6 869.2 372.6C869.2 384.6 868 396.867 865.6 409.4C863.467 421.933 861.067 434.333 858.4 446.6C856 458.6 853.6 469.533 851.2 479.4C849.067 489.267 848 496.333 848 500.6L844 561C859.733 565.267 873.067 567.4 884 567.4C894.933 567.4 904.8 565.533 913.6 561.8C935.733 552.467 946.8 536.2 946.8 513C946.8 499.133 945.467 487.667 942.8 478.6C940.133 469.533 935.333 461.533 928.4 454.6C922.267 455.933 917.2 456.6 913.2 456.6ZM1274.8 502.6C1279.6 502.6 1282 508.733 1282 521C1282 527.667 1279.2 535.8 1273.6 545.4C1268 554.733 1260.67 563.4 1251.6 571.4C1242.8 579.133 1232.94 585.533 1222 590.6C1211.07 595.667 1200.4 598.2 1190 598.2C1175.87 598.2 1166.4 585.8 1161.6 561C1154.67 572.467 1145.6 581.933 1134.4 589.4C1123.2 596.6 1108.14 600.2 1089.2 600.2C1070.54 600.2 1055.47 594.333 1044 582.6C1032.54 570.867 1026.94 556.6 1027.2 539.8C1027.2 494.467 1042.27 458.733 1072.4 432.6C1085.2 421.667 1097.07 414.467 1108 411C1119.2 407.533 1130.94 405.8 1143.2 405.8C1155.47 405.8 1165.47 407.933 1173.2 412.2C1176.94 404.467 1181.2 400.6 1186 400.6C1195.34 400.6 1204.14 404.733 1212.4 413C1220.94 421 1225.2 428.6 1225.2 435.8C1221.47 444.6 1216 455.133 1208.8 467.4C1206.67 479.667 1205.6 496.867 1205.6 519C1205.6 541.133 1208.4 552.2 1214 552.2C1220.94 552.2 1237.74 538.333 1264.4 510.6C1269.2 505.267 1272.67 502.6 1274.8 502.6ZM1086 526.6C1086 547.133 1093.6 557.4 1108.8 557.4C1125.07 557.133 1138.54 548.467 1149.2 531.4C1152.94 525.533 1156 518.333 1158.4 509.8C1158.4 479.933 1161.07 454.333 1166.4 433C1144.8 437.267 1126 447.667 1110 464.2C1094 480.733 1086 501.533 1086 526.6ZM1279.62 409C1259.88 400.467 1250.02 392.2 1250.02 384.2C1250.02 379.933 1251.75 377.933 1255.22 378.2C1260.02 378.2 1265.48 379.4 1271.62 381.8C1277.75 383.933 1284.02 385.667 1290.42 387C1312.28 345.667 1337.08 318.6 1364.82 305.8C1374.15 301.533 1383.48 299.267 1392.82 299C1411.22 299 1425.22 303.533 1434.82 312.6C1444.68 321.4 1449.62 332.2 1449.62 345C1449.62 367.933 1437.22 385.667 1412.42 398.2C1392.15 408.333 1364.55 414.6 1329.62 417C1317.08 447.933 1310.82 481.133 1310.82 516.6C1310.82 543 1316.95 558.333 1329.22 562.6C1337.75 565.533 1344.15 565.667 1348.42 563C1352.68 560.067 1356.02 556.333 1358.42 551.8C1360.82 547 1362.02 540.067 1362.02 531C1362.28 521.933 1359.75 514.333 1354.42 508.2C1349.35 501.8 1344.42 495.933 1339.62 490.6C1342.02 481.8 1345.48 474.467 1350.02 468.6C1358.55 457.133 1365.88 451.4 1372.02 451.4C1378.15 451.4 1383.08 453.533 1386.82 457.8C1390.82 462.067 1394.02 467.4 1396.42 473.8C1398.82 480.2 1400.68 487.133 1402.02 494.6C1403.62 502.067 1405.35 509 1407.22 515.4C1409.08 521.8 1411.35 527.133 1414.02 531.4C1416.95 535.667 1420.68 537.8 1425.22 537.8C1430.02 537.8 1434.28 536.067 1438.02 532.6C1441.75 528.867 1445.08 524.867 1448.02 520.6C1450.95 516.333 1453.62 512.467 1456.02 509C1458.42 505.267 1460.82 503.4 1463.22 503.4C1465.88 503.4 1468.42 505.533 1470.82 509.8C1473.48 514.067 1474.82 518.067 1474.82 521.8C1474.82 530.333 1470.55 540.467 1462.02 552.2C1453.75 563.933 1443.08 569.8 1430.02 569.8C1416.95 569.533 1406.82 566.733 1399.62 561.4C1395.08 572.6 1387.35 581.933 1376.42 589.4C1365.48 596.867 1349.88 600.6 1329.62 600.6C1309.62 600.6 1292.42 595.4 1278.02 585C1260.68 572.467 1252.02 553 1252.02 526.6C1252.02 489 1261.22 449.8 1279.62 409ZM1405.62 352.2C1405.35 342.867 1401.88 338.2 1395.22 338.2C1388.82 338.2 1380.42 343.133 1370.02 353C1359.62 362.867 1349.62 376.6 1340.02 394.2C1369.08 389.133 1388.95 380.2 1399.62 367.4C1403.35 362.6 1405.35 357.533 1405.62 352.2ZM1529.86 553.4C1550.66 553.4 1570.79 545.133 1590.26 528.6C1597.46 522.467 1603.32 516.867 1607.86 511.8C1612.39 506.467 1615.86 503.8 1618.26 503.8C1621.99 503.8 1623.86 507.533 1623.86 515C1623.86 522.467 1621.86 530.867 1617.86 540.2C1613.86 549.267 1607.19 558.2 1597.86 567C1574.92 588.6 1543.46 599.4 1503.46 599.4C1471.72 599.4 1450.12 587.933 1438.66 565C1434.66 557 1432.66 545.533 1432.66 530.6C1432.66 515.667 1435.59 500.2 1441.46 484.2C1447.32 467.933 1455.06 453.933 1464.66 442.2C1474.52 430.467 1485.86 421.4 1498.66 415C1511.46 408.333 1525.06 405 1539.46 405C1554.12 405 1565.32 408.6 1573.06 415.8C1581.06 423 1585.06 432.333 1585.06 443.8C1585.06 455.267 1582.12 464.733 1576.26 472.2C1570.66 479.4 1563.32 485.533 1554.26 490.6C1545.19 495.4 1535.06 499.8 1523.86 503.8C1512.92 507.533 1502.12 511.8 1491.46 516.6V526.6C1491.72 536.2 1495.72 543 1503.46 547C1511.19 551 1519.99 553.133 1529.86 553.4ZM1523.06 440.6C1509.19 440.6 1499.59 456.733 1494.26 489C1499.86 485.267 1505.06 481.933 1509.86 479C1514.92 476.067 1519.32 473.267 1523.06 470.6C1531.06 464.733 1535.19 458.067 1535.46 450.6C1535.46 443.933 1531.32 440.6 1523.06 440.6Z" fill="#23365D"/>
</svg>
